<svg width="24" height="24" viewBox="0 0 24 24" fill="none" xmlns="http://www.w3.org/2000/svg">
<path d="M16.2102 7.99999H7.79019C7.45778 7.99951 7.13203 8.09318 6.85064 8.27015C6.56925 8.44712 6.34373 8.70017 6.20019 8.99999C6.03216 9.35573 5.96744 9.75152 6.01341 10.1423C6.05938 10.533 6.21419 10.903 6.46019 11.21L10.6702 16.31C10.8354 16.5006 11.0397 16.6535 11.2691 16.7583C11.4986 16.8631 11.7479 16.9173 12.0002 16.9173C12.2525 16.9173 12.5018 16.8631 12.7312 16.7583C12.9607 16.6535 13.165 16.5006 13.3302 16.31L17.5402 11.21C17.7862 10.903 17.941 10.533 17.987 10.1423C18.0329 9.75152 17.9682 9.35573 17.8002 8.99999C17.6566 8.70017 17.4311 8.44712 17.1497 8.27015C16.8684 8.09318 16.5426 7.99951 16.2102 7.99999Z" fill="white"/>
</svg>
